<svg width="33" height="34" viewBox="0 0 33 34" fill="none" xmlns="http://www.w3.org/2000/svg">
<path fill-rule="evenodd" clip-rule="evenodd" d="M0.666687 16.8393C0.666687 7.60824 7.86993 0.125 16.7556 0.125C25.6412 0.125 32.8445 7.60824 32.8445 16.8393C32.8445 26.0703 25.6412 33.5536 16.7556 33.5536C7.86993 33.5536 0.666687 26.0703 0.666687 16.8393Z" fill="#C4C4C4"/>
<path fill-rule="evenodd" clip-rule="evenodd" d="M16.7556 0.125C7.86993 0.125 0.666687 7.60824 0.666687 16.8393C0.666687 26.0703 7.86993 33.5536 16.7556 33.5536C25.6412 33.5536 32.8445 26.0703 32.8445 16.8393C32.8445 7.60824 25.6412 0.125 16.7556 0.125ZM18.4325 17.5735V26.667H14.8108V17.5739H13.0014V14.4402H14.8108V12.5588C14.8108 10.0023 15.8325 8.48218 18.7352 8.48218H21.1518V11.6162H19.6413C18.5113 11.6162 18.4366 12.0541 18.4366 12.8714L18.4325 14.4398H21.1689L20.8487 17.5735H18.4325Z" fill="white"/>
</svg>
