<svg width="34" height="34" viewBox="0 0 34 34" fill="none" xmlns="http://www.w3.org/2000/svg">
<path fill-rule="evenodd" clip-rule="evenodd" d="M0.93335 16.8393C0.93335 7.60824 8.13659 0.125 17.0222 0.125C25.9079 0.125 33.1111 7.60824 33.1111 16.8393C33.1111 26.0703 25.9079 33.5536 17.0222 33.5536C8.13659 33.5536 0.93335 26.0703 0.93335 16.8393Z" fill="#C4C4C4"/>
<path fill-rule="evenodd" clip-rule="evenodd" d="M17.0222 0.125C8.13659 0.125 0.93335 7.60824 0.93335 16.8393C0.93335 26.0703 8.13659 33.5536 17.0222 33.5536C25.9079 33.5536 33.1111 26.0703 33.1111 16.8393C33.1111 7.60824 25.9079 0.125 17.0222 0.125ZM13.8201 7.97891C14.7354 7.93563 15.0279 7.92505 17.3583 7.92505H17.3556C19.6867 7.92505 19.9781 7.93563 20.8934 7.97891C21.8069 8.02236 22.4308 8.17261 22.9778 8.39305C23.5427 8.62056 24.02 8.92513 24.4973 9.42099C24.9746 9.91648 25.2678 10.4138 25.4877 11.0001C25.6986 11.5669 25.8435 12.2147 25.8864 13.1637C25.9275 14.1146 25.9382 14.4184 25.9382 16.8394C25.9382 19.2604 25.9275 19.5635 25.8864 20.5144C25.8435 21.463 25.6986 22.111 25.4877 22.678C25.2678 23.2641 24.9746 23.7614 24.4973 24.2569C24.0206 24.7528 23.5425 25.0581 22.9783 25.2858C22.4324 25.5062 21.8081 25.6565 20.8946 25.6999C19.9793 25.7432 19.6878 25.7538 17.3572 25.7538C15.027 25.7538 14.7347 25.7432 13.8194 25.6999C12.9061 25.6565 12.2823 25.5062 11.7364 25.2858C11.1724 25.0581 10.6936 24.7528 10.2169 24.2569C9.73974 23.7614 9.44656 23.2641 9.22721 22.6778C9.01519 22.111 8.87057 21.4632 8.82856 20.5142C8.78708 19.5633 8.77672 19.2604 8.77672 16.8394C8.77672 14.4184 8.78744 14.1144 8.82838 13.1635C8.8695 12.2149 9.0143 11.5669 9.22703 11C9.44691 10.4138 9.74009 9.91648 10.2174 9.42099C10.6944 8.92532 11.1731 8.62074 11.7375 8.39305C12.2831 8.17261 12.9066 8.02236 13.8201 7.97891Z" fill="white"/>
<path fill-rule="evenodd" clip-rule="evenodd" d="M16.5886 9.53104C16.738 9.53079 16.8988 9.53087 17.0724 9.53095L17.3583 9.53104C19.6494 9.53104 19.921 9.53958 20.8257 9.58229C21.6623 9.62204 22.1164 9.76727 22.4189 9.88928C22.8193 10.0509 23.1048 10.244 23.405 10.556C23.7053 10.868 23.8912 11.1652 24.0471 11.5812C24.1646 11.895 24.3045 12.3667 24.3426 13.2359C24.3837 14.1756 24.3927 14.4579 24.3927 16.8369C24.3927 19.216 24.3837 19.4982 24.3426 20.438C24.3043 21.3071 24.1646 21.7788 24.0471 22.0927C23.8916 22.5087 23.7053 22.8049 23.405 23.1167C23.1046 23.4287 22.8195 23.6219 22.4189 23.7835C22.1168 23.906 21.6623 24.0509 20.8257 24.0906C19.9212 24.1333 19.6494 24.1426 17.3583 24.1426C15.0671 24.1426 14.7955 24.1333 13.891 24.0906C13.0543 24.0505 12.6003 23.9053 12.2976 23.7833C11.8972 23.6217 11.6112 23.4286 11.3108 23.1165C11.0105 22.8045 10.8246 22.5081 10.6687 22.092C10.5512 21.7781 10.4113 21.3064 10.3732 20.4372C10.3321 19.4975 10.3239 19.2152 10.3239 16.8347C10.3239 14.4542 10.3321 14.1734 10.3732 13.2337C10.4114 12.3645 10.5512 11.8928 10.6687 11.5786C10.8242 11.1626 11.0105 10.8654 11.3108 10.5534C11.6112 10.2414 11.8972 10.0483 12.2976 9.88631C12.6001 9.76374 13.0543 9.61888 13.891 9.57895C14.6826 9.54181 14.9893 9.53067 16.5886 9.52881V9.53104ZM21.9385 11.0106C21.37 11.0106 20.9088 11.4892 20.9088 12.08C20.9088 12.6706 21.37 13.1497 21.9385 13.1497C22.507 13.1497 22.9682 12.6706 22.9682 12.08C22.9682 11.4894 22.507 11.0103 21.9385 11.0103V11.0106ZM12.9518 16.8379C12.9518 14.3098 14.9247 12.2601 17.3582 12.26C19.7918 12.26 21.7643 14.3098 21.7643 16.8379C21.7643 19.3661 19.7919 21.4149 17.3584 21.4149C14.9248 21.4149 12.9518 19.3661 12.9518 16.8379Z" fill="white"/>
<path fill-rule="evenodd" clip-rule="evenodd" d="M17.3581 13.8677C18.9377 13.8677 20.2184 15.198 20.2184 16.8391C20.2184 18.4801 18.9377 19.8106 17.3581 19.8106C15.7783 19.8106 14.4978 18.4801 14.4978 16.8391C14.4978 15.198 15.7783 13.8677 17.3581 13.8677V13.8677Z" fill="white"/>
</svg>
