<svg width="33" height="34" viewBox="0 0 33 34" fill="none" xmlns="http://www.w3.org/2000/svg">
<path fill-rule="evenodd" clip-rule="evenodd" d="M0.200012 16.8393C0.200012 7.60824 7.40325 0.125 16.2889 0.125C25.1745 0.125 32.3778 7.60824 32.3778 16.8393C32.3778 26.0703 25.1745 33.5536 16.2889 33.5536C7.40325 33.5536 0.200012 26.0703 0.200012 16.8393Z" fill="#C4C4C4"/>
<path fill-rule="evenodd" clip-rule="evenodd" d="M16.2889 0.125C7.40325 0.125 0.200012 7.60824 0.200012 16.8393C0.200012 26.0703 7.40325 33.5536 16.2889 33.5536C25.1745 33.5536 32.3778 26.0703 32.3778 16.8393C32.3778 7.60824 25.1745 0.125 16.2889 0.125ZM16.5112 14.2884L16.4775 13.7101C16.3762 12.2111 17.2652 10.8419 18.672 10.3108C19.1897 10.1219 20.0675 10.0983 20.6414 10.2636C20.8665 10.3344 21.2941 10.5705 21.598 10.7829L22.1494 11.1724L22.7571 10.9718C23.0947 10.8655 23.5449 10.6885 23.7475 10.5705C23.9388 10.4642 24.1076 10.4052 24.1076 10.4406C24.1076 10.6413 23.6912 11.3259 23.3423 11.7036C22.8697 12.2347 23.0047 12.2819 23.9613 11.9278C24.5352 11.7272 24.5465 11.7272 24.434 11.9514C24.3664 12.0695 24.0176 12.4826 23.6462 12.8603C23.016 13.5094 22.9822 13.5803 22.9822 14.1232C22.9822 14.9612 22.5996 16.7081 22.2169 17.6641C21.5079 19.4582 19.9887 21.3113 18.4694 22.2437C16.3312 23.5539 13.484 23.8844 11.0869 23.1172C10.2879 22.8575 8.9149 22.1965 8.9149 22.0785C8.9149 22.0431 9.33129 21.9959 9.83771 21.9841C10.8956 21.9605 11.9534 21.6536 12.8537 21.1106L13.4615 20.7329L12.7637 20.4851C11.7734 20.131 10.8843 19.3166 10.6592 18.5494C10.5917 18.3015 10.6142 18.2897 11.2444 18.2897L11.8972 18.2779L11.3457 18.0064C10.693 17.6641 10.0966 17.0858 9.80395 16.4956C9.59013 16.0707 9.32003 14.9966 9.39881 14.914C9.42132 14.8786 9.65765 14.9494 9.92774 15.0438C10.7043 15.3389 10.8055 15.2681 10.3554 14.7724C9.51135 13.8753 9.25251 12.5416 9.65765 11.2786L9.84897 10.7121L10.5917 11.4793C12.111 13.0255 13.9004 13.9461 15.9486 14.2176L16.5112 14.2884Z" fill="white"/>
</svg>
