<svg width="33" height="34" viewBox="0 0 33 34" fill="none" xmlns="http://www.w3.org/2000/svg">
<path fill-rule="evenodd" clip-rule="evenodd" d="M0.466675 16.8393C0.466675 7.60824 7.66992 0.125 16.5556 0.125C25.4412 0.125 32.6445 7.60824 32.6445 16.8393C32.6445 26.0703 25.4412 33.5536 16.5556 33.5536C7.66992 33.5536 0.466675 26.0703 0.466675 16.8393Z" fill="#C4C4C4"/>
<path fill-rule="evenodd" clip-rule="evenodd" d="M16.5556 0.125C7.66992 0.125 0.466675 7.60824 0.466675 16.8393C0.466675 26.0703 7.66992 33.5536 16.5556 33.5536C25.4412 33.5536 32.6445 26.0703 32.6445 16.8393C32.6445 7.60824 25.4412 0.125 16.5556 0.125ZM23.2605 11.0938C23.9989 11.3043 24.5804 11.9245 24.7778 12.7122C25.1364 14.1397 25.1364 17.1183 25.1364 17.1183C25.1364 17.1183 25.1364 20.0968 24.7778 21.5245C24.5804 22.3121 23.9989 22.9324 23.2605 23.143C21.9223 23.5255 16.5557 23.5255 16.5557 23.5255C16.5557 23.5255 11.1891 23.5255 9.85081 23.143C9.11238 22.9324 8.53084 22.3121 8.33348 21.5245C7.97495 20.0968 7.97495 17.1183 7.97495 17.1183C7.97495 17.1183 7.97495 14.1397 8.33348 12.7122C8.53084 11.9245 9.11238 11.3043 9.85081 11.0938C11.1891 10.7112 16.5557 10.7112 16.5557 10.7112C16.5557 10.7112 21.9223 10.7112 23.2605 11.0938Z" fill="white"/>
<path fill-rule="evenodd" clip-rule="evenodd" d="M14.9466 20.1818V14.6104L19.2369 17.3962L14.9466 20.1818Z" fill="white"/>
</svg>
